<svg xmlns="http://www.w3.org/2000/svg" width="24" height="24" viewBox="0 0 24 24" style="fill: rgba(70, 99, 152, 1);">
    <path d="M 3 3 L 8.294 3 L 8.294 8.294 L 3 8.294 L 3 3 Z M 9.353 3 L 14.647 3 L 14.647 8.294 L 9.353 8.294 L 9.353 3 Z M 15.706 3 L 21 3 L 21 8.294 L 15.706 8.294 L 15.706 3 Z M 3 9.353 L 8.294 9.353 L 8.294 14.647 L 3 14.647 L 3 9.353 Z M 9.353 9.353 L 14.647 9.353 L 14.647 14.647 L 9.353 14.647 L 9.353 9.353 Z M 15.706 9.353 L 21 9.353 L 21 14.647 L 15.706 14.647 L 15.706 9.353 Z M 3 15.706 L 8.294 15.706 L 8.294 21 L 3 21 L 3 15.706 Z M 9.353 15.706 L 14.647 15.706 L 14.647 21 L 9.353 21 L 9.353 15.706 Z"></path>
</svg>